<mxfile host="app.diagrams.net" modified="2024-05-30T18:56:58.655Z" agent="Mozilla/5.0 (Windows NT 10.0; Win64; x64) AppleWebKit/537.36 (KHTML, like Gecko) Chrome/125.0.0.0 Safari/537.36" etag="-dz0_xAgCIZ5KKCvuLsn" version="24.4.10" type="github">
  <diagram name="Page-1" id="2YBvvXClWsGukQMizWep">
    <mxGraphModel dx="603" dy="709" grid="1" gridSize="10" guides="1" tooltips="1" connect="1" arrows="1" fold="1" page="1" pageScale="1" pageWidth="850" pageHeight="1100" math="0" shadow="0">
      <root>
        <mxCell id="0" />
        <mxCell id="1" parent="0" />
        <mxCell id="xsa3WwK3oo9Z3I_wByr_-1" value="Buyer" style="rounded=0;whiteSpace=wrap;html=1;" vertex="1" parent="1">
          <mxGeometry x="110" y="190" width="120" height="60" as="geometry" />
        </mxCell>
        <mxCell id="xsa3WwK3oo9Z3I_wByr_-2" value="order database" style="rounded=0;whiteSpace=wrap;html=1;" vertex="1" parent="1">
          <mxGeometry x="900" y="190" width="120" height="60" as="geometry" />
        </mxCell>
        <mxCell id="xsa3WwK3oo9Z3I_wByr_-3" value="Backend server" style="rounded=0;whiteSpace=wrap;html=1;" vertex="1" parent="1">
          <mxGeometry x="650" y="190" width="120" height="60" as="geometry" />
        </mxCell>
        <mxCell id="xsa3WwK3oo9Z3I_wByr_-4" value="Web interface" style="rounded=0;whiteSpace=wrap;html=1;" vertex="1" parent="1">
          <mxGeometry x="390" y="190" width="120" height="60" as="geometry" />
        </mxCell>
        <mxCell id="xsa3WwK3oo9Z3I_wByr_-5" value="Order database" style="rounded=0;whiteSpace=wrap;html=1;" vertex="1" parent="1">
          <mxGeometry x="910" y="930" width="120" height="60" as="geometry" />
        </mxCell>
        <mxCell id="xsa3WwK3oo9Z3I_wByr_-6" value="Backendserver" style="rounded=0;whiteSpace=wrap;html=1;" vertex="1" parent="1">
          <mxGeometry x="650" y="930" width="120" height="60" as="geometry" />
        </mxCell>
        <mxCell id="xsa3WwK3oo9Z3I_wByr_-7" value="Web interface" style="rounded=0;whiteSpace=wrap;html=1;" vertex="1" parent="1">
          <mxGeometry x="390" y="930" width="120" height="60" as="geometry" />
        </mxCell>
        <mxCell id="xsa3WwK3oo9Z3I_wByr_-8" value="Buyer" style="rounded=0;whiteSpace=wrap;html=1;" vertex="1" parent="1">
          <mxGeometry x="110" y="930" width="120" height="60" as="geometry" />
        </mxCell>
        <mxCell id="xsa3WwK3oo9Z3I_wByr_-9" value="" style="endArrow=none;html=1;rounded=0;fontSize=12;startSize=8;endSize=8;curved=1;entryX=0.5;entryY=1;entryDx=0;entryDy=0;exitX=0.392;exitY=0.003;exitDx=0;exitDy=0;exitPerimeter=0;" edge="1" parent="1" source="xsa3WwK3oo9Z3I_wByr_-5" target="xsa3WwK3oo9Z3I_wByr_-2">
          <mxGeometry width="50" height="50" relative="1" as="geometry">
            <mxPoint x="700" y="500" as="sourcePoint" />
            <mxPoint x="750" y="450" as="targetPoint" />
          </mxGeometry>
        </mxCell>
        <mxCell id="xsa3WwK3oo9Z3I_wByr_-10" value="" style="endArrow=none;html=1;rounded=0;fontSize=12;startSize=8;endSize=8;curved=1;entryX=0.5;entryY=1;entryDx=0;entryDy=0;exitX=0.5;exitY=0;exitDx=0;exitDy=0;" edge="1" parent="1" source="xsa3WwK3oo9Z3I_wByr_-6" target="xsa3WwK3oo9Z3I_wByr_-3">
          <mxGeometry width="50" height="50" relative="1" as="geometry">
            <mxPoint x="700" y="500" as="sourcePoint" />
            <mxPoint x="750" y="450" as="targetPoint" />
          </mxGeometry>
        </mxCell>
        <mxCell id="xsa3WwK3oo9Z3I_wByr_-11" value="" style="endArrow=none;html=1;rounded=0;fontSize=12;startSize=8;endSize=8;curved=1;exitX=0.5;exitY=0;exitDx=0;exitDy=0;entryX=0.5;entryY=1;entryDx=0;entryDy=0;" edge="1" parent="1" source="xsa3WwK3oo9Z3I_wByr_-7" target="xsa3WwK3oo9Z3I_wByr_-4">
          <mxGeometry width="50" height="50" relative="1" as="geometry">
            <mxPoint x="700" y="500" as="sourcePoint" />
            <mxPoint x="750" y="450" as="targetPoint" />
          </mxGeometry>
        </mxCell>
        <mxCell id="xsa3WwK3oo9Z3I_wByr_-13" value="" style="endArrow=none;html=1;rounded=0;fontSize=12;startSize=8;endSize=8;curved=1;entryX=0.5;entryY=1;entryDx=0;entryDy=0;exitX=0.5;exitY=0;exitDx=0;exitDy=0;" edge="1" parent="1" source="xsa3WwK3oo9Z3I_wByr_-8" target="xsa3WwK3oo9Z3I_wByr_-1">
          <mxGeometry width="50" height="50" relative="1" as="geometry">
            <mxPoint x="440" y="580" as="sourcePoint" />
            <mxPoint x="490" y="530" as="targetPoint" />
          </mxGeometry>
        </mxCell>
        <mxCell id="xsa3WwK3oo9Z3I_wByr_-14" value="" style="endArrow=classic;html=1;rounded=0;fontSize=12;startSize=8;endSize=8;curved=1;" edge="1" parent="1">
          <mxGeometry width="50" height="50" relative="1" as="geometry">
            <mxPoint x="170" y="320" as="sourcePoint" />
            <mxPoint x="450" y="320" as="targetPoint" />
          </mxGeometry>
        </mxCell>
        <mxCell id="xsa3WwK3oo9Z3I_wByr_-15" value="buyer places order" style="text;html=1;align=center;verticalAlign=middle;resizable=0;points=[];autosize=1;strokeColor=none;fillColor=none;fontSize=16;" vertex="1" parent="1">
          <mxGeometry x="164" y="291" width="160" height="30" as="geometry" />
        </mxCell>
        <mxCell id="xsa3WwK3oo9Z3I_wByr_-16" value="" style="endArrow=classic;html=1;rounded=0;fontSize=12;startSize=8;endSize=8;curved=1;" edge="1" parent="1">
          <mxGeometry width="50" height="50" relative="1" as="geometry">
            <mxPoint x="450" y="360" as="sourcePoint" />
            <mxPoint x="710" y="360" as="targetPoint" />
          </mxGeometry>
        </mxCell>
        <mxCell id="xsa3WwK3oo9Z3I_wByr_-21" value="Text" style="edgeLabel;html=1;align=center;verticalAlign=middle;resizable=0;points=[];fontSize=12;" vertex="1" connectable="0" parent="xsa3WwK3oo9Z3I_wByr_-16">
          <mxGeometry x="-0.1093" relative="1" as="geometry">
            <mxPoint x="-1" as="offset" />
          </mxGeometry>
        </mxCell>
        <mxCell id="xsa3WwK3oo9Z3I_wByr_-22" value="sends order details" style="edgeLabel;html=1;align=center;verticalAlign=middle;resizable=0;points=[];fontSize=12;" vertex="1" connectable="0" parent="xsa3WwK3oo9Z3I_wByr_-16">
          <mxGeometry x="-0.0814" relative="1" as="geometry">
            <mxPoint x="-1" as="offset" />
          </mxGeometry>
        </mxCell>
        <mxCell id="xsa3WwK3oo9Z3I_wByr_-19" value="" style="endArrow=classic;html=1;rounded=0;fontSize=12;startSize=8;endSize=8;curved=1;" edge="1" parent="1">
          <mxGeometry width="50" height="50" relative="1" as="geometry">
            <mxPoint x="710" y="400" as="sourcePoint" />
            <mxPoint x="960" y="400" as="targetPoint" />
          </mxGeometry>
        </mxCell>
        <mxCell id="xsa3WwK3oo9Z3I_wByr_-20" value="stores details" style="edgeLabel;html=1;align=center;verticalAlign=middle;resizable=0;points=[];fontSize=12;" vertex="1" connectable="0" parent="xsa3WwK3oo9Z3I_wByr_-19">
          <mxGeometry x="-0.1464" y="11" relative="1" as="geometry">
            <mxPoint x="-1" as="offset" />
          </mxGeometry>
        </mxCell>
        <mxCell id="xsa3WwK3oo9Z3I_wByr_-23" value="" style="endArrow=classic;html=1;rounded=0;fontSize=12;startSize=8;endSize=8;curved=1;" edge="1" parent="1">
          <mxGeometry width="50" height="50" relative="1" as="geometry">
            <mxPoint x="170" y="400" as="sourcePoint" />
            <mxPoint x="450" y="400" as="targetPoint" />
          </mxGeometry>
        </mxCell>
        <mxCell id="xsa3WwK3oo9Z3I_wByr_-24" value="" style="endArrow=classic;html=1;rounded=0;fontSize=12;startSize=8;endSize=8;curved=1;" edge="1" parent="1">
          <mxGeometry width="50" height="50" relative="1" as="geometry">
            <mxPoint x="450" y="440" as="sourcePoint" />
            <mxPoint x="710" y="440" as="targetPoint" />
            <Array as="points">
              <mxPoint x="580" y="440" />
            </Array>
          </mxGeometry>
        </mxCell>
        <mxCell id="xsa3WwK3oo9Z3I_wByr_-25" value="" style="endArrow=classic;html=1;rounded=0;fontSize=12;startSize=8;endSize=8;curved=1;" edge="1" parent="1">
          <mxGeometry width="50" height="50" relative="1" as="geometry">
            <mxPoint x="710" y="480" as="sourcePoint" />
            <mxPoint x="960" y="480" as="targetPoint" />
          </mxGeometry>
        </mxCell>
        <mxCell id="xsa3WwK3oo9Z3I_wByr_-31" value="retrieve delivery status" style="edgeLabel;html=1;align=center;verticalAlign=middle;resizable=0;points=[];fontSize=12;" vertex="1" connectable="0" parent="xsa3WwK3oo9Z3I_wByr_-25">
          <mxGeometry x="-0.4907" y="-1" relative="1" as="geometry">
            <mxPoint as="offset" />
          </mxGeometry>
        </mxCell>
        <mxCell id="xsa3WwK3oo9Z3I_wByr_-26" value="" style="endArrow=classic;html=1;rounded=0;fontSize=12;startSize=8;endSize=8;curved=1;" edge="1" parent="1">
          <mxGeometry width="50" height="50" relative="1" as="geometry">
            <mxPoint x="960" y="560" as="sourcePoint" />
            <mxPoint x="710" y="560" as="targetPoint" />
          </mxGeometry>
        </mxCell>
        <mxCell id="xsa3WwK3oo9Z3I_wByr_-27" value="" style="endArrow=classic;html=1;rounded=0;fontSize=12;startSize=8;endSize=8;curved=1;" edge="1" parent="1">
          <mxGeometry width="50" height="50" relative="1" as="geometry">
            <mxPoint x="710" y="600" as="sourcePoint" />
            <mxPoint x="450" y="600" as="targetPoint" />
          </mxGeometry>
        </mxCell>
        <mxCell id="xsa3WwK3oo9Z3I_wByr_-33" value="send delivery status" style="edgeLabel;html=1;align=center;verticalAlign=middle;resizable=0;points=[];fontSize=12;" vertex="1" connectable="0" parent="xsa3WwK3oo9Z3I_wByr_-27">
          <mxGeometry x="0.2445" y="-6" relative="1" as="geometry">
            <mxPoint as="offset" />
          </mxGeometry>
        </mxCell>
        <mxCell id="xsa3WwK3oo9Z3I_wByr_-28" value="request to track order" style="text;html=1;align=center;verticalAlign=middle;resizable=0;points=[];autosize=1;strokeColor=none;fillColor=none;fontSize=16;" vertex="1" parent="1">
          <mxGeometry x="174" y="371" width="180" height="30" as="geometry" />
        </mxCell>
        <mxCell id="xsa3WwK3oo9Z3I_wByr_-30" value="send delivery status request" style="text;html=1;align=center;verticalAlign=middle;resizable=0;points=[];autosize=1;strokeColor=none;fillColor=none;fontSize=16;" vertex="1" parent="1">
          <mxGeometry x="450" y="450" width="220" height="30" as="geometry" />
        </mxCell>
        <mxCell id="xsa3WwK3oo9Z3I_wByr_-32" value="return delivery status" style="text;html=1;align=center;verticalAlign=middle;resizable=0;points=[];autosize=1;strokeColor=none;fillColor=none;fontSize=16;" vertex="1" parent="1">
          <mxGeometry x="699" y="531" width="170" height="30" as="geometry" />
        </mxCell>
        <mxCell id="xsa3WwK3oo9Z3I_wByr_-39" value="Distributor" style="rounded=0;whiteSpace=wrap;html=1;" vertex="1" parent="1">
          <mxGeometry x="1120" y="190" width="120" height="60" as="geometry" />
        </mxCell>
        <mxCell id="xsa3WwK3oo9Z3I_wByr_-40" value="Distributor" style="rounded=0;whiteSpace=wrap;html=1;" vertex="1" parent="1">
          <mxGeometry x="1110" y="930" width="120" height="60" as="geometry" />
        </mxCell>
        <mxCell id="xsa3WwK3oo9Z3I_wByr_-41" value="" style="endArrow=classic;html=1;rounded=0;fontSize=12;startSize=8;endSize=8;curved=1;entryX=0.5;entryY=0;entryDx=0;entryDy=0;exitX=0.5;exitY=1;exitDx=0;exitDy=0;" edge="1" parent="1" source="xsa3WwK3oo9Z3I_wByr_-39" target="xsa3WwK3oo9Z3I_wByr_-40">
          <mxGeometry width="50" height="50" relative="1" as="geometry">
            <mxPoint x="1050" y="540" as="sourcePoint" />
            <mxPoint x="1100" y="490" as="targetPoint" />
          </mxGeometry>
        </mxCell>
        <mxCell id="xsa3WwK3oo9Z3I_wByr_-42" value="" style="endArrow=classic;html=1;rounded=0;fontSize=12;startSize=8;endSize=8;curved=1;" edge="1" parent="1">
          <mxGeometry width="50" height="50" relative="1" as="geometry">
            <mxPoint x="710" y="420" as="sourcePoint" />
            <mxPoint x="1180" y="420" as="targetPoint" />
          </mxGeometry>
        </mxCell>
        <mxCell id="xsa3WwK3oo9Z3I_wByr_-43" value="Notify" style="text;html=1;align=center;verticalAlign=middle;resizable=0;points=[];autosize=1;strokeColor=none;fillColor=none;fontSize=16;" vertex="1" parent="1">
          <mxGeometry x="994" y="401" width="60" height="30" as="geometry" />
        </mxCell>
        <mxCell id="xsa3WwK3oo9Z3I_wByr_-44" value="Delivery database" style="rounded=0;whiteSpace=wrap;html=1;" vertex="1" parent="1">
          <mxGeometry x="1630" y="930" width="120" height="60" as="geometry" />
        </mxCell>
        <mxCell id="xsa3WwK3oo9Z3I_wByr_-45" value="Farmer" style="rounded=0;whiteSpace=wrap;html=1;" vertex="1" parent="1">
          <mxGeometry x="1420" y="930" width="120" height="60" as="geometry" />
        </mxCell>
        <mxCell id="xsa3WwK3oo9Z3I_wByr_-48" value="Delivery database" style="rounded=0;whiteSpace=wrap;html=1;" vertex="1" parent="1">
          <mxGeometry x="1630" y="190" width="120" height="60" as="geometry" />
        </mxCell>
        <mxCell id="xsa3WwK3oo9Z3I_wByr_-49" value="Farmer" style="rounded=0;whiteSpace=wrap;html=1;" vertex="1" parent="1">
          <mxGeometry x="1390" y="190" width="120" height="60" as="geometry" />
        </mxCell>
        <mxCell id="xsa3WwK3oo9Z3I_wByr_-51" value="" style="endArrow=none;html=1;rounded=0;fontSize=12;startSize=8;endSize=8;curved=1;entryX=0.5;entryY=1;entryDx=0;entryDy=0;exitX=0.25;exitY=0;exitDx=0;exitDy=0;" edge="1" parent="1" source="xsa3WwK3oo9Z3I_wByr_-45" target="xsa3WwK3oo9Z3I_wByr_-49">
          <mxGeometry width="50" height="50" relative="1" as="geometry">
            <mxPoint x="1500" y="460" as="sourcePoint" />
            <mxPoint x="1550" y="410" as="targetPoint" />
          </mxGeometry>
        </mxCell>
        <mxCell id="xsa3WwK3oo9Z3I_wByr_-52" value="" style="endArrow=none;html=1;rounded=0;fontSize=12;startSize=8;endSize=8;curved=1;entryX=0.5;entryY=1;entryDx=0;entryDy=0;exitX=0.5;exitY=0;exitDx=0;exitDy=0;" edge="1" parent="1" source="xsa3WwK3oo9Z3I_wByr_-44" target="xsa3WwK3oo9Z3I_wByr_-48">
          <mxGeometry width="50" height="50" relative="1" as="geometry">
            <mxPoint x="1480" y="640" as="sourcePoint" />
            <mxPoint x="1530" y="590" as="targetPoint" />
          </mxGeometry>
        </mxCell>
        <mxCell id="xsa3WwK3oo9Z3I_wByr_-53" value="" style="endArrow=classic;html=1;rounded=0;fontSize=12;startSize=8;endSize=8;curved=1;" edge="1" parent="1">
          <mxGeometry width="50" height="50" relative="1" as="geometry">
            <mxPoint x="1180" y="360" as="sourcePoint" />
            <mxPoint x="1450" y="360" as="targetPoint" />
          </mxGeometry>
        </mxCell>
        <mxCell id="xsa3WwK3oo9Z3I_wByr_-56" value="request product pickup" style="edgeLabel;html=1;align=center;verticalAlign=middle;resizable=0;points=[];fontSize=12;" vertex="1" connectable="0" parent="xsa3WwK3oo9Z3I_wByr_-53">
          <mxGeometry x="-0.2929" y="2" relative="1" as="geometry">
            <mxPoint as="offset" />
          </mxGeometry>
        </mxCell>
        <mxCell id="xsa3WwK3oo9Z3I_wByr_-54" value="" style="endArrow=classic;html=1;rounded=0;fontSize=12;startSize=8;endSize=8;curved=1;" edge="1" parent="1">
          <mxGeometry width="50" height="50" relative="1" as="geometry">
            <mxPoint x="1450" y="480" as="sourcePoint" />
            <mxPoint x="1180" y="480" as="targetPoint" />
          </mxGeometry>
        </mxCell>
        <mxCell id="xsa3WwK3oo9Z3I_wByr_-55" value="" style="endArrow=classic;html=1;rounded=0;fontSize=12;startSize=8;endSize=8;curved=1;" edge="1" parent="1">
          <mxGeometry width="50" height="50" relative="1" as="geometry">
            <mxPoint x="1170" y="600" as="sourcePoint" />
            <mxPoint x="1690" y="600" as="targetPoint" />
          </mxGeometry>
        </mxCell>
        <mxCell id="xsa3WwK3oo9Z3I_wByr_-57" value="confirm handover" style="text;html=1;align=center;verticalAlign=middle;resizable=0;points=[];autosize=1;strokeColor=none;fillColor=none;fontSize=16;" vertex="1" parent="1">
          <mxGeometry x="1179" y="451" width="150" height="30" as="geometry" />
        </mxCell>
        <mxCell id="xsa3WwK3oo9Z3I_wByr_-58" value="update delivery status" style="text;html=1;align=center;verticalAlign=middle;resizable=0;points=[];autosize=1;strokeColor=none;fillColor=none;fontSize=16;" vertex="1" parent="1">
          <mxGeometry x="1284" y="571" width="180" height="30" as="geometry" />
        </mxCell>
        <mxCell id="xsa3WwK3oo9Z3I_wByr_-59" value="" style="endArrow=classic;html=1;rounded=0;fontSize=12;startSize=8;endSize=8;curved=1;" edge="1" parent="1">
          <mxGeometry width="50" height="50" relative="1" as="geometry">
            <mxPoint x="170" y="680" as="sourcePoint" />
            <mxPoint x="450" y="680" as="targetPoint" />
          </mxGeometry>
        </mxCell>
        <mxCell id="xsa3WwK3oo9Z3I_wByr_-60" value="submit review for product" style="edgeLabel;html=1;align=center;verticalAlign=middle;resizable=0;points=[];fontSize=12;" vertex="1" connectable="0" parent="xsa3WwK3oo9Z3I_wByr_-59">
          <mxGeometry x="-0.0416" y="11" relative="1" as="geometry">
            <mxPoint as="offset" />
          </mxGeometry>
        </mxCell>
        <mxCell id="xsa3WwK3oo9Z3I_wByr_-61" value="" style="endArrow=classic;html=1;rounded=0;fontSize=12;startSize=8;endSize=8;curved=1;" edge="1" parent="1">
          <mxGeometry width="50" height="50" relative="1" as="geometry">
            <mxPoint x="450" y="720" as="sourcePoint" />
            <mxPoint x="710" y="720" as="targetPoint" />
          </mxGeometry>
        </mxCell>
        <mxCell id="xsa3WwK3oo9Z3I_wByr_-62" value="send review" style="edgeLabel;html=1;align=center;verticalAlign=middle;resizable=0;points=[];fontSize=12;" vertex="1" connectable="0" parent="xsa3WwK3oo9Z3I_wByr_-61">
          <mxGeometry x="0.0834" y="6" relative="1" as="geometry">
            <mxPoint x="-1" as="offset" />
          </mxGeometry>
        </mxCell>
        <mxCell id="xsa3WwK3oo9Z3I_wByr_-63" value="" style="endArrow=classic;html=1;rounded=0;fontSize=12;startSize=8;endSize=8;curved=1;" edge="1" parent="1">
          <mxGeometry width="50" height="50" relative="1" as="geometry">
            <mxPoint x="710" y="770" as="sourcePoint" />
            <mxPoint x="960" y="770" as="targetPoint" />
          </mxGeometry>
        </mxCell>
        <mxCell id="xsa3WwK3oo9Z3I_wByr_-65" value="store review" style="text;html=1;align=center;verticalAlign=middle;resizable=0;points=[];autosize=1;strokeColor=none;fillColor=none;fontSize=16;" vertex="1" parent="1">
          <mxGeometry x="769" y="741" width="110" height="30" as="geometry" />
        </mxCell>
      </root>
    </mxGraphModel>
  </diagram>
</mxfile>
